<?xml version="1.0" encoding="UTF-8"?>
<svg width="32px" height="27px" viewBox="0 0 32 27" version="1.1" xmlns="http://www.w3.org/2000/svg" xmlns:xlink="http://www.w3.org/1999/xlink">
    <title>logo</title>
    <defs>
        <linearGradient x1="123.783981%" y1="71.2042111%" x2="-14.1287813%" y2="15.8103202%" id="linearGradient-1">
            <stop stop-color="#FE7539" offset="0%"></stop>
            <stop stop-color="#FAB54C" offset="1.98178321%"></stop>
            <stop stop-color="#43C28B" offset="24.596494%"></stop>
            <stop stop-color="#2E98D2" offset="36.7897186%"></stop>
            <stop stop-color="#905EF7" offset="49.1542628%"></stop>
            <stop stop-color="#FB5D73" offset="77.8251951%"></stop>
            <stop stop-color="#AF65F7" offset="100%"></stop>
        </linearGradient>
        <linearGradient x1="123.783981%" y1="57.9701358%" x2="-14.1287813%" y2="37.1489493%" id="linearGradient-2">
            <stop stop-color="#FE7539" offset="0%"></stop>
            <stop stop-color="#FAB54C" offset="1.98178321%"></stop>
            <stop stop-color="#43C28B" offset="24.596494%"></stop>
            <stop stop-color="#2E98D2" offset="36.7897186%"></stop>
            <stop stop-color="#905EF7" offset="49.1542628%"></stop>
            <stop stop-color="#FB5D73" offset="77.8251951%"></stop>
            <stop stop-color="#AF65F7" offset="100%"></stop>
        </linearGradient>
    </defs>
    <g id="Page-1" stroke="none" stroke-width="1" fill="none" fill-rule="evenodd" stroke-linecap="square">
        <g id="Artboard" transform="translate(-1758.000000, -302.000000)" stroke-width="1.213056">
            <g id="logo" transform="translate(1759.000000, 303.000000)">
                <path d="M7.63074183,17.2292421 L7.63074183,22.3412446 C7.63074183,23.7779522 6.46606019,24.9426338 5.02935257,24.9426338 L2.60138926,24.9426338 C1.16468164,24.9426338 2.38394328e-15,23.7779522 2.65208655e-15,22.3412446 L2.65208655e-15,9.30259485 L2.65208655e-15,9.30259485 C3.21311816,10.2067603 7.62261447,12.0431011 15.1747707,12.0431011 C22.7269269,12.0431011 27.4594602,10.2067603 30.3495414,9.30259485 L30.3495414,22.3748405 C30.3495414,23.7983607 29.2053649,24.9575071 27.7819649,24.97601 L25.362129,25.0074656 C23.9255427,25.0261399 22.745821,23.8766952 22.7271467,22.440109 C22.7270002,22.4288386 22.7269269,22.4175674 22.7269269,22.4062961 L22.7269269,17.2292421 L22.7269269,17.2292421 C19.2987854,17.8507627 16.877919,18.161523 15.4643277,18.161523 C14.0507363,18.161523 11.439541,17.8507627 7.63074183,17.2292421 Z" id="Path-Copy" stroke="url(#linearGradient-1)"></path>
                <path d="M1.38740761,-3.31510819e-15 L3.73870967,-3.31510819e-15 C4.21166898,-8.50028433e-06 4.6520484,0.24092327 4.90710022,0.639218482 C6.41528945,2.9944439 9.83784627,4.17205661 15.1747707,4.17205661 C20.5085945,4.17205661 23.9229101,2.99581182 25.4177175,0.643322238 C25.6723026,0.242683206 26.1140384,-4.49272321e-15 26.5887227,-3.31510819e-15 L28.9621338,-3.31510819e-15 C29.7283778,-3.45586494e-15 30.3495414,0.621163543 30.3495414,1.38740761 L30.3495414,7.02330568 L30.3495414,7.02330568 C25.3135291,8.77406639 20.2552722,9.64944675 15.1747707,9.64944675 C10.0942692,9.64944675 5.03601231,8.77406639 2.65208655e-15,7.02330568 L2.65208655e-15,1.38740761 C2.55824872e-15,0.621163543 0.621163543,-3.17435144e-15 1.38740761,-3.31510819e-15 Z" id="Rectangle-Copy-4" stroke="url(#linearGradient-2)"></path>
            </g>
        </g>
    </g>
</svg>