<?xml version="1.0" encoding="UTF-8"?>
<svg width="248px" height="49px" viewBox="0 0 248 49" version="1.1" xmlns="http://www.w3.org/2000/svg" xmlns:xlink="http://www.w3.org/1999/xlink">
    <title>stars</title>
    <g id="Page-1" stroke="none" stroke-width="1" fill="none" fill-rule="evenodd">
        <g id="Artboard" transform="translate(-1615.000000, -1359.000000)" fill="#DCD45E">
            <g id="stars" transform="translate(1615.000000, 1359.000000)">
                <path d="M24.5,33.7908805 L13.1117479,42.118141 C12.5767698,42.509325 11.825967,42.3927569 11.434783,41.8577787 C11.2065277,41.5456198 11.1426943,41.1425918 11.2633156,40.7751763 L15.6638475,27.37104 L15.6638475,27.37104 L4.22498876,19.1134337 C3.6876333,18.7255217 3.56648539,17.9754443 3.95439732,17.4380888 C4.18074334,17.1245428 4.54432013,16.9392911 4.93102709,16.9404711 L19.0389574,16.9835198 L19.0389574,16.9835198 L23.357606,3.5527779 C23.5604802,2.92185111 24.2364094,2.57484593 24.8673362,2.77772013 C25.2354811,2.89609692 25.5240172,3.1846331 25.642394,3.5527779 L29.9610426,16.9835198 L29.9610426,16.9835198 L44.0689729,16.9404711 C44.7317115,16.9384488 45.2706067,17.4740653 45.272629,18.1368039 C45.2738089,18.5235108 45.0885573,18.8870876 44.7750112,19.1134337 L33.3361525,27.37104 L33.3361525,27.37104 L37.7366844,40.7751763 C37.9434052,41.4048533 37.6005315,42.0828876 36.9708545,42.2896084 C36.603439,42.4102297 36.200411,42.3463963 35.8882521,42.118141 L24.5,33.7908805 L24.5,33.7908805 Z" id="Star"></path>
                <path d="M77.5,33.7908805 L66.1117479,42.118141 C65.5767698,42.509325 64.825967,42.3927569 64.434783,41.8577787 C64.2065277,41.5456198 64.1426943,41.1425918 64.2633156,40.7751763 L68.6638475,27.37104 L68.6638475,27.37104 L57.2249888,19.1134337 C56.6876333,18.7255217 56.5664854,17.9754443 56.9543973,17.4380888 C57.1807433,17.1245428 57.5443201,16.9392911 57.9310271,16.9404711 L72.0389574,16.9835198 L72.0389574,16.9835198 L76.357606,3.5527779 C76.5604802,2.92185111 77.2364094,2.57484593 77.8673362,2.77772013 C78.2354811,2.89609692 78.5240172,3.1846331 78.642394,3.5527779 L82.9610426,16.9835198 L82.9610426,16.9835198 L97.0689729,16.9404711 C97.7317115,16.9384488 98.2706067,17.4740653 98.272629,18.1368039 C98.2738089,18.5235108 98.0885573,18.8870876 97.7750112,19.1134337 L86.3361525,27.37104 L86.3361525,27.37104 L90.7366844,40.7751763 C90.9434052,41.4048533 90.6005315,42.0828876 89.9708545,42.2896084 C89.603439,42.4102297 89.200411,42.3463963 88.8882521,42.118141 L77.5,33.7908805 L77.5,33.7908805 Z" id="Star-Copy"></path>
                <path d="M125.5,33.7908805 L114.111748,42.118141 C113.57677,42.509325 112.825967,42.3927569 112.434783,41.8577787 C112.206528,41.5456198 112.142694,41.1425918 112.263316,40.7751763 L116.663848,27.37104 L116.663848,27.37104 L105.224989,19.1134337 C104.687633,18.7255217 104.566485,17.9754443 104.954397,17.4380888 C105.180743,17.1245428 105.54432,16.9392911 105.931027,16.9404711 L120.038957,16.9835198 L120.038957,16.9835198 L124.357606,3.5527779 C124.56048,2.92185111 125.236409,2.57484593 125.867336,2.77772013 C126.235481,2.89609692 126.524017,3.1846331 126.642394,3.5527779 L130.961043,16.9835198 L130.961043,16.9835198 L145.068973,16.9404711 C145.731712,16.9384488 146.270607,17.4740653 146.272629,18.1368039 C146.273809,18.5235108 146.088557,18.8870876 145.775011,19.1134337 L134.336152,27.37104 L134.336152,27.37104 L138.736684,40.7751763 C138.943405,41.4048533 138.600531,42.0828876 137.970854,42.2896084 C137.603439,42.4102297 137.200411,42.3463963 136.888252,42.118141 L125.5,33.7908805 L125.5,33.7908805 Z" id="Star-Copy-2"></path>
                <path d="M174.5,33.7908805 L163.111748,42.118141 C162.57677,42.509325 161.825967,42.3927569 161.434783,41.8577787 C161.206528,41.5456198 161.142694,41.1425918 161.263316,40.7751763 L165.663848,27.37104 L165.663848,27.37104 L154.224989,19.1134337 C153.687633,18.7255217 153.566485,17.9754443 153.954397,17.4380888 C154.180743,17.1245428 154.54432,16.9392911 154.931027,16.9404711 L169.038957,16.9835198 L169.038957,16.9835198 L173.357606,3.5527779 C173.56048,2.92185111 174.236409,2.57484593 174.867336,2.77772013 C175.235481,2.89609692 175.524017,3.1846331 175.642394,3.5527779 L179.961043,16.9835198 L179.961043,16.9835198 L194.068973,16.9404711 C194.731712,16.9384488 195.270607,17.4740653 195.272629,18.1368039 C195.273809,18.5235108 195.088557,18.8870876 194.775011,19.1134337 L183.336152,27.37104 L183.336152,27.37104 L187.736684,40.7751763 C187.943405,41.4048533 187.600531,42.0828876 186.970854,42.2896084 C186.603439,42.4102297 186.200411,42.3463963 185.888252,42.118141 L174.5,33.7908805 L174.5,33.7908805 Z" id="Star-Copy-3"></path>
                <path d="M223.5,33.7908805 L212.111748,42.118141 C211.57677,42.509325 210.825967,42.3927569 210.434783,41.8577787 C210.206528,41.5456198 210.142694,41.1425918 210.263316,40.7751763 L214.663848,27.37104 L214.663848,27.37104 L203.224989,19.1134337 C202.687633,18.7255217 202.566485,17.9754443 202.954397,17.4380888 C203.180743,17.1245428 203.54432,16.9392911 203.931027,16.9404711 L218.038957,16.9835198 L218.038957,16.9835198 L222.357606,3.5527779 C222.56048,2.92185111 223.236409,2.57484593 223.867336,2.77772013 C224.235481,2.89609692 224.524017,3.1846331 224.642394,3.5527779 L228.961043,16.9835198 L228.961043,16.9835198 L243.068973,16.9404711 C243.731712,16.9384488 244.270607,17.4740653 244.272629,18.1368039 C244.273809,18.5235108 244.088557,18.8870876 243.775011,19.1134337 L232.336152,27.37104 L232.336152,27.37104 L236.736684,40.7751763 C236.943405,41.4048533 236.600531,42.0828876 235.970854,42.2896084 C235.603439,42.4102297 235.200411,42.3463963 234.888252,42.118141 L223.5,33.7908805 L223.5,33.7908805 Z" id="Star-Copy-4"></path>
            </g>
        </g>
    </g>
</svg>